<svg xmlns="http://www.w3.org/2000/svg" width="780" height="182" viewBox="0 0 780 182" fill="none">
<g clip-path="url(#clip0_1515_36)">
<g clip-path="url(#clip1_1515_36)">
<path d="M141.592 0H40.5492C18.1567 0 0 18.1426 0 40.5178V141.482C0 163.857 18.1567 182 40.5492 182H141.592C163.984 182 182.141 163.857 182.141 141.482V40.5178C182.141 18.1426 163.984 0 141.592 0Z" fill="#6B2C8F"/>
<path d="M347.62 1.33203L354.965 107.233C355.258 112.125 355.409 117.062 355.409 122.03C355.409 126.999 355.074 131.762 354.413 136.547C353.741 141.331 352.614 145.888 351.022 150.229C349.429 154.57 347.111 158.478 344.067 161.964C342.507 163.598 341.229 164.908 340.221 165.915C339.214 166.921 338.239 167.787 337.274 168.523C336.31 169.27 335.249 169.909 334.1 170.472C332.952 171.024 331.554 171.674 329.929 172.42C327.481 173.308 325.715 173.979 324.643 174.423C323.57 174.867 322.509 175.257 321.469 175.592C320.429 175.928 319.02 176.274 317.233 176.653C315.456 177.021 312.737 177.649 309.108 178.547C307.179 178.991 305.446 179.424 303.929 179.825C302.402 180.236 300.929 180.507 299.477 180.658C298.025 180.81 296.433 180.918 294.689 180.994C292.944 181.07 290.919 181.026 288.622 180.886C283.866 180.593 280.064 180.16 277.214 179.608C274.354 179.056 271.332 178.028 268.136 176.545C264.94 175.138 262.232 173.741 260.011 172.377C257.779 171.002 255.873 169.487 254.28 167.82C252.688 166.153 251.312 164.226 250.164 162.039C249.015 159.853 247.845 157.168 246.654 153.975C245.765 151.528 244.931 148.454 244.151 144.741C243.371 141.039 242.721 137.229 242.201 133.342C241.681 129.445 241.237 125.797 240.869 122.388C240.5 118.978 240.24 116.304 240.089 114.377L233.859 9.2559L264.258 7.25328L272.491 124.834C273.087 133.959 275.167 140.703 278.72 145.077C282.284 149.45 288.481 151.344 297.31 150.749C305.923 150.305 312.542 147.469 317.179 142.24C321.815 137.012 323.841 129.835 323.245 120.71L313.658 3.33465L347.609 1.33203H347.62Z" fill="#6B2C8F"/>
<path d="M481.282 2.23047L480.394 28.481L410.367 28.9248L414.928 84.879L471.489 80.3217L473.385 107.915L417.279 107.471L421.179 161.531L485.865 159.42L486.753 177.66L383.771 179.89L380.315 5.45631L481.293 2.23047H481.282Z" fill="#6B2C8F"/>
<path d="M551.926 3.33409L584.989 84.4347L592.562 6.34342L626.514 9.23369L611.705 182L584.989 176.772L546.91 97.0133L539.674 175.884L506.383 172.658L520.975 0L551.926 3.33409V3.33409Z" fill="#6B2C8F"/>
<path d="M682.587 159.851L674.906 177.204L641.615 175.309L712.422 3.56055L738.693 4.00437L780 180.884L744.153 179.434L740.48 163.304L682.587 159.851V159.851ZM721.11 59.1792L693.052 131.154L736.136 133.936L721.11 59.1792V59.1792Z" fill="#6B2C8F"/>
<path d="M141.375 24.8761C150.247 24.8328 157.484 32.053 157.473 40.9403C157.473 49.8059 150.204 57.0695 141.375 57.0262C132.513 56.9937 125.342 49.7302 125.385 40.832C125.417 32.0314 132.557 24.9085 141.386 24.8652L141.375 24.8761Z" fill="#FFFFFF"/>
<path d="M122.038 84.3162C126.858 75.8403 134.669 71.8026 143.856 70.0489C147.182 69.4103 150.616 69.2587 154.007 69.1505C158.015 69.0206 159.348 70.4819 159.369 74.5521C159.369 75.0284 159.369 75.5047 159.369 75.981C159.023 84.5652 157.322 92.7705 151.894 99.7201C146.597 106.497 139.187 109.571 130.953 110.859C127.736 111.357 124.443 111.519 121.193 111.53C118.506 111.53 116.946 109.939 116.87 107.33C116.664 99.2438 117.986 91.4607 122.048 84.3271L122.038 84.3162Z" fill="#FFFFFF"/>
<path d="M52.1084 26.8463L56.3334 87.1089C56.6368 91.7852 57.6984 95.2384 59.5293 97.4792C61.3601 99.7199 64.5343 100.694 69.0518 100.391C73.4609 100.164 76.8626 98.7132 79.2351 96.0286C81.6076 93.344 82.6476 89.6744 82.3443 84.998L77.4368 24.8545L94.8351 23.8262L98.6051 78.1025C98.7568 80.6139 98.8326 83.1361 98.8326 85.68C98.8326 88.2238 98.6593 90.6703 98.3234 93.1167C97.9768 95.5631 97.4026 97.9013 96.5793 100.131C95.7559 102.35 94.5751 104.364 93.0151 106.15C92.2134 106.983 91.5634 107.665 91.0434 108.174C90.5234 108.683 90.0251 109.138 89.5268 109.517C89.0284 109.895 88.4868 110.231 87.9018 110.512C87.3059 110.794 86.6018 111.129 85.7676 111.508C84.5109 111.963 83.6118 112.309 83.0593 112.537C82.5068 112.764 81.9651 112.959 81.4343 113.132C80.9034 113.305 80.1776 113.489 79.2676 113.673C78.3576 113.868 76.9709 114.182 75.1076 114.648C74.1218 114.875 73.2334 115.091 72.4534 115.308C71.6734 115.514 70.9151 115.665 70.1676 115.741C69.4309 115.817 68.6076 115.871 67.7193 115.914C66.8201 115.957 65.7909 115.936 64.6101 115.86C62.1726 115.708 60.2226 115.492 58.7601 115.2C57.2976 114.918 55.7484 114.388 54.1126 113.63C52.4768 112.905 51.0901 112.19 49.9526 111.497C48.8151 110.794 47.8293 110.014 47.0168 109.159C46.1934 108.304 45.5001 107.319 44.9043 106.193C44.3084 105.067 43.7126 103.693 43.1059 102.058C42.6509 100.802 42.2176 99.222 41.8276 97.3276C41.4268 95.4224 41.0909 93.4848 40.8309 91.4821C40.5601 89.4904 40.3326 87.6176 40.1484 85.864C39.9534 84.1212 39.8234 82.7464 39.7476 81.7613L36.5518 27.8855L52.1301 26.8572L52.1084 26.8463Z" fill="#FFFFFF"/>
<path d="M159.369 137.272C159.207 137.727 159.055 138.182 158.871 138.636C157.582 141.862 155.231 143.886 151.742 143.962C144.625 144.114 137.507 144.038 130.401 144.005C128.754 144.005 127.779 142.988 127.682 141.332C127.627 140.487 127.682 139.643 127.682 138.593C125.331 138.593 123.045 138.561 120.759 138.647C120.521 138.647 120.196 139.318 120.087 139.719C117.91 148.141 112.948 154.289 105.105 158.067C101.443 159.832 97.5433 160.568 93.4808 160.568C79.0292 160.557 64.5775 160.633 50.115 160.546C36.3783 160.47 25.6858 151.605 23.205 138.225C22.7067 135.551 22.8367 132.748 22.7933 129.998C22.7717 128.71 23.725 127.757 25.0142 127.541C25.5775 127.443 26.1625 127.465 26.7475 127.465C56.7233 127.465 86.6992 127.465 116.675 127.465C120.087 127.465 120.748 128.114 120.748 131.492C120.748 132.022 120.748 132.542 120.748 133.267H127.682C127.682 132.379 127.66 131.557 127.682 130.745C127.736 128.818 128.754 127.757 130.672 127.757C137.562 127.736 144.462 127.703 151.352 127.768C154.982 127.801 157.885 130.085 159.033 133.538C159.131 133.819 159.261 134.09 159.38 134.36V137.294L159.369 137.272Z" fill="#FFFFFF"/>
</g>
</g>
<defs>
<clipPath id="clip0_1515_36">
<rect width="780" height="182" fill="white"/>
</clipPath>
<clipPath id="clip1_1515_36">
<rect width="780" height="182" fill="white"/>
</clipPath>
</defs>
</svg>